<svg xmlns="http://www.w3.org/2000/svg" id="Capa_1" data-name="Capa 1" viewBox="0 0 433.57 433.57"><defs><style>.cls-1{fill:#3299cc;}.cls-2,.cls-3,.cls-4,.cls-5,.cls-7{fill:none;stroke:#fff;}.cls-2,.cls-3,.cls-4,.cls-7{stroke-linecap:round;stroke-linejoin:round;}.cls-2{stroke-width:20px;}.cls-3{stroke-width:8px;}.cls-4,.cls-5{stroke-width:3px;}.cls-5{stroke-miterlimit:10;}.cls-6{fill:#fff;}.cls-7{stroke-width:4.5px;}</style></defs><title>poti-2</title><circle class="cls-1" cx="216.78" cy="216.78" r="216.78"/><path class="cls-2" d="M290.15,556.41c25.87-1,50.35-3.49,74.64-13.25a176.52,176.52,0,0,0,63.92-43.8" transform="translate(-80.52 -203.71)"/><path class="cls-3" d="M260.71,389.55c8.73-6.47,44.24-20.23,73.13-5.75" transform="translate(-80.52 -203.71)"/><path class="cls-4" d="M244.75,351.24a55.67,55.67,0,1,1-64-11.12" transform="translate(-80.52 -203.71)"/><path class="cls-4" d="M180.79,340.12c15-6.32,22.72-26.05,25.78-40.44" transform="translate(-80.52 -203.71)"/><path class="cls-4" d="M244.75,351.24c-11.79-10.81-8.17-30.79-5.26-44.46" transform="translate(-80.52 -203.71)"/><path class="cls-5" d="M237.87,304.78a3.82,3.82,0,0,1,1.23.73,1.25,1.25,0,0,1,.39,1.27,1.86,1.86,0,0,1-1.53,1.11c-4.81.63-9.91-.5-14.58-1.49a83.93,83.93,0,0,1-13.62-4.06,7.31,7.31,0,0,1-2.74-1.75,1.54,1.54,0,0,1-.45-.91c0-.81,1.05-1.25,2.11-1.23" transform="translate(-80.52 -203.71)"/><path class="cls-6" d="M260.53,385.82c-.07-5-5.46-2.25-9.13-1.27-1,.27-2,.59-3,.87-3,.83-5.56,2.63-8.43,3.73-5.68,2.19-12.2,1.51-17.73-1a33.85,33.85,0,0,1-9.31-6.52c-2.57-2.47-4.56-5.48-7.29-7.79-5.42-4.59-13-6.16-20-5.24-5.44.71-10.6,2.78-16,3.93-5.68,1.21-11.6,1.05-16.71-2a65.46,65.46,0,0,0-2.27,7.61c-.8,4.28-1.67,11.89-1.34,16.24a59,59,0,0,0,8.6,25.57c8.52,13.77,23.74,23.24,39.78,25.48s33.08-3.34,45-14.26c7.92-7.23,7.92-7.23,12.93-16.57,1.83-3.4,4.37-15.63,4.69-18.44A40.93,40.93,0,0,0,260.53,385.82Z" transform="translate(-80.52 -203.71)"/><path class="cls-6" d="M239.72,357.38c-.77,1.25-4,1-9.59-2.49-1.82-1.13-4.8-4.68-6.16-5.79-2.84-2.31-5.1-3.56-4.58-4.41.78-1.24,6,.59,11.58,4.09S240.5,356.13,239.72,357.38Z" transform="translate(-80.52 -203.71)"/><path class="cls-7" d="M234.94,306.78l4.83-12.46a2.08,2.08,0,0,0-1.43-2.8l-27.79-6.88a2.07,2.07,0,0,0-2.52,2.49l3.15,13.18a2.06,2.06,0,0,0,1.6,1.55Z" transform="translate(-80.52 -203.71)"/><path class="cls-4" d="M429.33,351.24a55.67,55.67,0,1,1-64-11.12" transform="translate(-80.52 -203.71)"/><path class="cls-4" d="M365.36,340.12c15-6.32,22.72-26.05,25.78-40.44" transform="translate(-80.52 -203.71)"/><path class="cls-4" d="M429.32,351.24c-11.78-10.81-8.17-30.79-5.26-44.46" transform="translate(-80.52 -203.71)"/><path class="cls-5" d="M422.44,304.78a3.82,3.82,0,0,1,1.23.73,1.25,1.25,0,0,1,.39,1.27,1.86,1.86,0,0,1-1.53,1.11c-4.8.63-9.9-.5-14.58-1.49a83.93,83.93,0,0,1-13.62-4.06,7.31,7.31,0,0,1-2.74-1.75,1.6,1.6,0,0,1-.45-.91c0-.81,1.05-1.25,2.12-1.23" transform="translate(-80.52 -203.71)"/><path class="cls-6" d="M445.11,385.82c-.08-5-5.46-2.25-9.13-1.27-1,.27-2,.59-3,.87-3,.83-5.56,2.63-8.43,3.73-5.67,2.19-12.2,1.51-17.72-1a33.75,33.75,0,0,1-9.32-6.52c-2.57-2.47-4.56-5.48-7.29-7.79-5.41-4.59-13-6.16-20-5.24-5.43.71-10.6,2.78-16,3.93-5.68,1.21-11.6,1.05-16.71-2a65.46,65.46,0,0,0-2.27,7.61c-.8,4.28-1.67,11.89-1.34,16.24a59.12,59.12,0,0,0,8.6,25.57c8.52,13.77,23.74,23.24,39.78,25.48s33.08-3.34,45-14.26c7.92-7.23,7.92-7.23,12.93-16.57,1.83-3.4,4.37-15.63,4.69-18.44A41.32,41.32,0,0,0,445.11,385.82Z" transform="translate(-80.52 -203.71)"/><path class="cls-6" d="M424.3,357.38c-.78,1.25-4,1-9.6-2.49-1.81-1.13-4.8-4.68-6.16-5.79-2.84-2.31-5.1-3.56-4.57-4.41.77-1.24,5.95.59,11.57,4.09S425.07,356.13,424.3,357.38Z" transform="translate(-80.52 -203.71)"/><path class="cls-7" d="M419.51,306.78l4.83-12.46a2.08,2.08,0,0,0-1.42-2.8l-27.8-6.88a2.07,2.07,0,0,0-2.52,2.49l3.15,13.18a2.06,2.06,0,0,0,1.6,1.55Z" transform="translate(-80.52 -203.71)"/></svg>
